<?xml version="1.0" encoding="UTF-8" standalone="no"?>
<!-- Created with Inkscape (http://www.inkscape.org/) -->

<svg
   xmlns:dc="http://purl.org/dc/elements/1.1/"
   xmlns:cc="http://creativecommons.org/ns#"
   xmlns:rdf="http://www.w3.org/1999/02/22-rdf-syntax-ns#"
   xmlns:svg="http://www.w3.org/2000/svg"
   xmlns="http://www.w3.org/2000/svg"
   xmlns:xlink="http://www.w3.org/1999/xlink"
   xmlns:sodipodi="http://sodipodi.sourceforge.net/DTD/sodipodi-0.dtd"
   xmlns:inkscape="http://www.inkscape.org/namespaces/inkscape"
   width="210mm"
   height="297mm"
   viewBox="0 0 744.09448819 1052.3622047"
   id="svg2"
   version="1.1"
   inkscape:version="0.91 r13725"
   sodipodi:docname="octnyaaaaaaa.svg">
  <defs
     id="defs4" />
  <sodipodi:namedview
     id="base"
     pagecolor="#ffffff"
     bordercolor="#666666"
     borderopacity="1.0"
     inkscape:pageopacity="0.0"
     inkscape:pageshadow="2"
     inkscape:zoom="0.98994949"
     inkscape:cx="140.61136"
     inkscape:cy="691.60505"
     inkscape:document-units="px"
     inkscape:current-layer="layer1"
     showgrid="false"
     inkscape:window-width="1366"
     inkscape:window-height="705"
     inkscape:window-x="-8"
     inkscape:window-y="-8"
     inkscape:window-maximized="1" />
  <metadata
     id="metadata7">
    <rdf:RDF>
      <cc:Work
         rdf:about="">
        <dc:format>image/svg+xml</dc:format>
        <dc:type
           rdf:resource="http://purl.org/dc/dcmitype/StillImage" />
        <dc:title></dc:title>
      </cc:Work>
    </rdf:RDF>
  </metadata>
  <g
     inkscape:label="レイヤー 1"
     inkscape:groupmode="layer"
     id="layer1">
    <a
       id="a3352">
      <path
         sodipodi:nodetypes="cssscsssccssssc"
         inkscape:connector-curvature="0"
         id="path3375"
         d="m 293.57143,458.07649 c 0,0 -37.01753,-4.93379 -48.16788,-12.43872 -13.2962,-8.94924 -36.11784,-22.56128 -38.97498,-55.41842 -2.85714,-32.85715 -5.71428,-53.57143 17.85714,-85 23.57143,-31.42857 43.57143,-50.71429 43.57143,-50.71429 0,0 -2.14285,-75 7.14286,-74.28571 9.28571,0.71428 47.85983,39.42435 51.42857,39.28572 19.20587,-0.74609 86.65212,-2.00973 81.42857,2.85713 -4.26586,3.97456 41.86573,-51.7026 48.57143,-45 16.32701,26.86623 18.722,43.78102 22.14286,61.42858 0,0 23.57143,13.57142 40,42.14285 16.42857,28.57143 34.28571,77.14286 30,100 -4.28572,22.85715 -6.86453,29.32655 -24.28572,47.14286 -23.26705,23.79476 -80.78408,31.48207 -110.71428,32.85714 -30.04474,1.38033 -127.85714,-2.85714 -120,-2.85714 z"
         style="fill:#010101;fill-opacity:1;fill-rule:evenodd;stroke:#000000;stroke-width:1px;stroke-linecap:butt;stroke-linejoin:miter;stroke-opacity:1" />
    </a>
    <path
       style="fill:#ffffff;fill-rule:evenodd;stroke:#000000;stroke-width:1px;stroke-linecap:butt;stroke-linejoin:miter;stroke-opacity:1"
       d="m 335.54097,413.76539 c 0,0 -0.68891,-4.64811 0.20395,-6.96954 0.89286,-2.32142 3.03572,-7.85714 3.03572,-7.85714 0,0 3.03571,-5.53571 4.28571,-7.14286 1.25,-1.60714 7.67857,-6.96428 7.67857,-6.96428 0,0 2.85714,-1.42857 5,-1.60714 2.14285,-0.17857 11.07143,1.42857 13.03572,1.96428 1.96428,0.53572 8.92857,3.39286 11.42857,4.64286 2.5,1.25 6.42857,7.5 6.60714,9.64286 0.17857,2.14286 1.87696,13.36526 -1.96429,16.42857 -4.13772,3.29973 -15.13885,3.25694 -16.96428,3.57143 -2.84,0.48928 -17.62396,0.38515 -17.5,0.17856 1.04764,0.78631 -7.61415,-0.9581 -9.10715,-1.07141 -2.76423,-0.20979 -5.73966,-4.81619 -5.73966,-4.81619 z"
       id="path3367"
       inkscape:connector-curvature="0"
       sodipodi:nodetypes="cscscsssssscsc" />
    <path
       style="fill:#ffffff;fill-rule:evenodd;stroke:#000000;stroke-width:1px;stroke-linecap:butt;stroke-linejoin:miter;stroke-opacity:1"
       d="m 356.07143,360.93363 c -1.06168,-0.30839 -3.52389,-4.66083 -5,-7.5 -1.18854,-2.28606 -2.63522,-5.19789 6.07143,-5 8.57108,0.19481 10.53571,1.78572 11.07143,2.85714 0.53571,1.07143 -4.63125,5.8774 -6.60715,7.5 -2.87024,2.35703 -5.54362,2.18175 -5.53571,2.14286 z"
       id="path3369"
       inkscape:connector-curvature="0"
       sodipodi:nodetypes="csscsc" />
    <path
       style="fill:#ffffff;fill-rule:evenodd;stroke:#000000;stroke-width:1px;stroke-linecap:butt;stroke-linejoin:miter;stroke-opacity:1"
       d="m 323.57142,324.14792 c 0,0 1.60715,5.17857 -2.14285,8.03572 -3.75,2.85714 -9.11866,3.61233 -11.60714,2.49999 -2.13766,-0.95553 -6.298,-2.52762 -9.28572,-7.5 -1.12413,-1.87087 -5.06203,-7.67737 -3.57143,-14.46428 0.60734,-2.76532 0.58422,-7.06222 4.64287,-11.60714 3.20929,-3.59381 5.85935,-5.05238 8.39285,-6.07144 1.59522,-0.64165 6.09844,-3.48973 11.96429,0 3.30439,1.96586 8.13325,5.4718 8.39285,9.10715 0.17853,2.5 -0.53571,6.42857 -0.53571,6.42857 0,0 0.95258,3.37093 -2.85714,0.35714 -3.01781,-2.38733 -0.99461,-3.10986 -7.32144,-6.42857 -4.42406,-0.63338 -6.84452,0.12033 -9.46428,3.03572 -1.76784,3.62505 -3.17421,7.84022 -2.5,9.10714 0.7814,1.46833 0.7312,3.72707 2.09693,4.89005 0.83999,0.71529 1.4745,1.18138 1.4745,1.18138 3.36813,1.12502 3.13851,2.55953 7.85714,0.89285 1.60715,-1.25 4.46428,0.53572 4.46428,0.53572 z"
       id="path3371"
       inkscape:connector-curvature="0"
       sodipodi:nodetypes="csssssssscsccssccc" />
    <path
       style="fill:#ffffff;fill-rule:evenodd;stroke:#000000;stroke-width:1px;stroke-linecap:butt;stroke-linejoin:miter;stroke-opacity:1;fill-opacity:1"
       d="m 421.07143,321.82649 c 0,0.71428 -4.46429,10.53571 -5.71429,10.71428 -1.25,0.17858 -5,4.64286 -11.78571,2.67858 -6.78567,-1.96426 -8.99814,-3.36938 -12.85714,-8.92858 -1.73408,-2.49808 -1.42857,-6.78571 0,-13.21428 1.42857,-6.42857 1.64992,-7.65226 4.82143,-12.85714 3.95185,-6.48554 12.27413,-8.8761 18.03571,-6.42858 5.67685,2.41153 12.85714,7.67858 12.5,9.64286 -0.35714,1.96429 -1.96429,4.28572 -6.60714,2.5 -4.64286,-1.78571 -11.5742,-2.97575 -12.85715,-0.71428 -1.56997,2.7674 -2.11173,4.53617 -1.78571,7.67857 0.39189,3.77739 1.52027,8.81797 6.96429,7.85714 5.20776,-0.91913 9.82142,-3.92857 9.82142,-2.14286 0,1.78572 -0.53571,3.21429 -0.53571,3.21429 z"
       id="path3373"
       inkscape:connector-curvature="0"
       sodipodi:nodetypes="cssssssssssssc" />
    <path
       style="fill:#ffffff;fill-rule:evenodd;stroke:#000000;stroke-width:1px;stroke-linecap:butt;stroke-linejoin:miter;stroke-opacity:1"
       d="m 316.17775,355.86203 c -0.5644,-3.38643 -225.534306,-20.81463 -205.06097,-8.5863 18.11883,10.82202 145.96704,22.72843 205.06097,8.5863 z"
       id="path4177"
       inkscape:connector-curvature="0"
       sodipodi:nodetypes="csc" />
    <use
       x="0"
       y="0"
       xlink:href="#path4177"
       id="use4179"
       transform="translate(5.555839,29.294423)"
       width="100%"
       height="100%" />
    <path
       sodipodi:nodetypes="csc"
       inkscape:connector-curvature="0"
       id="path4183"
       d="m 427.90222,355.00183 c 0.69732,-3.25053 219.09339,-10.0539 198.74265,0.85969 -18.01034,9.65848 -142.2122,15.46147 -198.74265,-0.85969 z"
       style="fill:#ffffff;fill-rule:evenodd;stroke:#000000;stroke-width:0.96834862px;stroke-linecap:butt;stroke-linejoin:miter;stroke-opacity:1" />
    <path
       style="fill:#ffffff;fill-rule:evenodd;stroke:#000000;stroke-width:0.96834862px;stroke-linecap:butt;stroke-linejoin:miter;stroke-opacity:1"
       d="m 422.85146,385.81148 c 0.69732,-3.25053 219.09339,-10.0539 198.74265,0.85969 -18.01034,9.65848 -142.2122,15.46147 -198.74265,-0.85969 z"
       id="path4185"
       inkscape:connector-curvature="0"
       sodipodi:nodetypes="csc" />
    <path
       style="fill:#000000;fill-rule:evenodd;stroke:#000000;stroke-width:1px;stroke-linecap:butt;stroke-linejoin:miter;stroke-opacity:1"
       d="m 293.95439,457.88743 c -6.51533,-1.89151 -25.56535,38.15994 -28.28427,52.52793 -3.05909,16.16559 -7.71789,56.07124 -6.56599,75.76144 1.01014,17.26728 -1.65266,37.75201 -15.28972,62.50075 -13.63706,24.74874 -33.11177,39.09501 -42.23206,46.38038 -16.81341,13.4307 -27.68851,24.19835 8.84627,29.69795 8.93442,1.3449 23.2694,2.87201 42.4623,-4.70413 19.1929,-7.57615 29.01342,-33.50834 29.01342,-33.50834 10.20456,-17.50218 16.40608,-74.49881 18.0602,-112.86226 0.51887,-12.03388 4.65772,-24.21834 7.62691,-37.5069 3.58453,-16.04249 5.60338,-36.63283 8.58629,18.18275 2.16809,39.84207 -3.03319,80.24664 -5.90246,112.35972 -0.44863,5.37015 -6.08358,40.66236 -6.2352,41.34463 -8.10161,36.45726 -26.5702,26.14121 -43.0828,41.49404 -1.51523,7.57614 29.61436,29.47629 52.18129,22.9166 11.00028,-3.19753 17.37565,-13.86728 17.37565,-13.86728 8.29652,-8.72292 13.25577,-19.54286 15.25381,-34.00728 0,0 1.98442,-51.75673 2.4895,-78.52577 0.50508,-26.76904 4.84119,-88.37056 3.78063,-112.92787 -0.89149,-20.64245 24.17921,-19.01276 24.74874,-4.54569 l -0.0929,6.5709 c -0.22547,15.94656 -0.46794,38.84464 -0.40226,57.57021 0.15999,45.61162 -0.31149,61.40389 0.16341,83.03299 0,0 -1.57694,14.65334 1.53009,46.58956 1.52603,15.68557 7.45756,38.0806 17.67151,45.66608 17.3495,20.03293 68.49574,-10.15062 60.31329,-18.71758 l -26.42917,-11.28023 c -15.69521,-14.06638 -12.66475,-40.33034 -12.66475,-40.33034 l -1.83897,-40.58966 c -0.93555,-20.64941 0.43142,-50.13844 0.43142,-50.13844 l -0.23089,-33.92622 2.46039,-54.04371 c 0,0 13.13197,26.26396 14.6472,46.97209 1.51523,20.70813 3.61543,79.04793 4.54568,102.53048 0.81693,20.62203 1.44787,32.5064 13.63706,51.51779 8.68498,13.5459 25.3364,16.30244 34.34519,18.68782 13.68813,3.62439 51.13946,-7.47578 43.43656,-16.66753 -6.66078,-7.94821 -44.51468,-28.85732 -48.9924,-58.08377 -2.23002,-14.55554 -4.54569,-62.62945 -4.54569,-62.62945 0,0 2.02032,-40.91118 -3.53553,-71.21576 -3.32835,-18.15466 -7.45624,-51.67809 -15.10894,-66.18785 -5.12153,-9.71057 -6.87629,-13.86163 -12.95125,-12.84914 -10.8925,1.81542 -41.21835,12.19526 -72.4826,9.17846 -16.69808,-1.61126 -42.24451,-0.78985 -46.43441,-0.85215 -38.86496,-0.57787 -30.30457,-1.51522 -30.30457,-1.51522 z"
       id="path4187"
       inkscape:connector-curvature="0"
       sodipodi:nodetypes="csssssssssscscsccsscsscsccccscccsssssscssssscc" />
    <path
       style="fill:#000000;fill-rule:evenodd;stroke:#000000;stroke-width:1px;stroke-linecap:butt;stroke-linejoin:miter;stroke-opacity:1"
       d="m 271.73104,589.71234 c -3.03046,0 -83.84268,-7.07106 -83.84268,-7.07106 l -9.09136,-3.03046 c -20.38532,-6.79512 -30.12285,-21.89534 -37.88072,-41.92133 -13.42434,-34.65331 -69.63637,-30.18728 -73.741135,-41.41626 -0.389362,-1.06513 17.442928,-17.26062 36.870565,-13.63706 15.02723,2.80281 40.4061,7.07107 48.9924,20.20305 8.58629,13.13199 20.70813,41.92134 35.86041,45.96195 15.15229,4.04061 55.05332,4.54568 55.05332,4.54568 l 28.28427,0.50508 z"
       id="path4189"
       inkscape:connector-curvature="0"
       sodipodi:nodetypes="ccssssssccc" />
    <ellipse
       style="fill:#ffffff;fill-opacity:1"
       id="path4191"
       cx="93.69165"
       cy="494.75797"
       rx="7.323606"
       ry="7.0710678" />
    <ellipse
       style="fill:#ffffff;fill-opacity:1"
       id="path4193"
       cx="136.11806"
       cy="505.11206"
       rx="6.3134537"
       ry="6.3134532" />
    <ellipse
       style="fill:#ffffff;fill-opacity:1"
       id="path4195"
       cx="115.40992"
       cy="495.76816"
       rx="5.8083773"
       ry="6.0609155" />
    <ellipse
       style="fill:#ffffff;fill-opacity:1"
       id="path4197"
       cx="153.0381"
       cy="524.30499"
       rx="6.0609155"
       ry="6.3134532" />
    <ellipse
       style="fill:#ffffff;fill-opacity:1"
       id="path4199"
       cx="168.69548"
       cy="546.52832"
       rx="8.0812206"
       ry="7.8286824" />
    <ellipse
       style="fill:#ffffff;fill-opacity:1"
       id="path4201"
       cx="193.44421"
       cy="558.93433"
       rx="7.287529"
       ry="7.3236065" />
    <ellipse
       style="fill:#ffffff;fill-opacity:1"
       id="path4203"
       cx="221.98102"
       cy="563.44836"
       rx="6.8185296"
       ry="6.5659914" />
    <ellipse
       style="fill:#ffffff;fill-opacity:1"
       id="path4205"
       cx="250.51782"
       cy="564.4585"
       rx="6.5659914"
       ry="7.0710678" />
  </g>
</svg>
